<svg xmlns="http://www.w3.org/2000/svg" width="512" height="512" viewBox="0 0 512 512">
  <defs>
    <radialGradient id="bg" cx="50%" cy="38%" r="75%">
      <stop offset="0%" stop-color="#0d1a2e"/>
      <stop offset="100%" stop-color="#050810"/>
    </radialGradient>
    <linearGradient id="arc" x1="0" y1="0" x2="1" y2="0">
      <stop offset="0%" stop-color="#22d3ee" stop-opacity="0"/>
      <stop offset="50%" stop-color="#22d3ee"/>
      <stop offset="100%" stop-color="#e879f9" stop-opacity="0.6"/>
    </linearGradient>
    <filter id="glow" x="-40%" y="-40%" width="180%" height="180%">
      <feGaussianBlur stdDeviation="7" result="b"/>
      <feMerge><feMergeNode in="b"/><feMergeNode in="SourceGraphic"/></feMerge>
    </filter>
  </defs>
  <rect width="512" height="512" rx="96" fill="url(#bg)"/>
  <g transform="translate(40,40) scale(1)">
    <!-- HUD corner brackets -->
    <g stroke="#22d3ee" stroke-width="7" fill="none" opacity="0.75">
      <path d="M8 48 V8 H48"/>
      <path d="M384 8 H424 V48"/>
      <path d="M424 384 V424 H384"/>
      <path d="M48 424 H8 V384"/>
    </g>
    <!-- Forge arc under the bar -->
    <path d="M60 300 A160 160 0 0 1 372 300" stroke="url(#arc)" stroke-width="10"
          fill="none" stroke-linecap="round" filter="url(#glow)"/>
    <!-- Barbell -->
    <g filter="url(#glow)">
      <rect x="36" y="204" width="360" height="16" rx="8" fill="#c9d4e3"/>
      <!-- plates: outer small, inner large, both sides -->
      <rect x="76"  y="146" width="26" height="132" rx="9" fill="#101d33" stroke="#22d3ee" stroke-width="6"/>
      <rect x="110" y="166" width="20" height="92"  rx="8" fill="#101d33" stroke="#22d3ee" stroke-width="5"/>
      <rect x="330" y="146" width="26" height="132" rx="9" fill="#101d33" stroke="#22d3ee" stroke-width="6"/>
      <rect x="302" y="166" width="20" height="92"  rx="8" fill="#101d33" stroke="#22d3ee" stroke-width="5"/>
    </g>
    <!-- Ignition spark -->
    <circle cx="216" cy="212" r="10" fill="#a5f3fc" filter="url(#glow)"/>
  </g>
</svg>